<svg width="256" height="257" viewBox="0 0 256 256" fill="none" xmlns="http://www.w3.org/2000/svg"><path d="M92.892 56.346a6.662 6.662 0 0 1 2.162 1.445l14.102 14.102.07-.036 18.814 18.85-.035.035 37.662 37.663 18.85-18.85-70.649-70.613a33.306 33.306 0 0 0-47.052 0L38.542 67.216a33.305 33.305 0 0 0 0 47.052l14.137 14.137 18.814-18.85L57.39 95.454a6.66 6.66 0 0 1 0-9.425L85.63 57.791a6.662 6.662 0 0 1 7.262-1.445Z" fill="url(#a)"/><path d="m160.955 199.018-14.101-14.102-.071.036-18.814-18.849.036-.036-37.663-37.662-18.85 18.849 70.65 70.613a33.303 33.303 0 0 0 47.051 0l28.274-28.274a33.306 33.306 0 0 0 0-47.052l-14.137-14.136-18.813 18.849 14.101 14.101a6.66 6.66 0 0 1 0 9.425l-28.238 28.238a6.66 6.66 0 0 1-9.425 0Z" fill="url(#b)"/><path fill-rule="evenodd" clip-rule="evenodd" d="M200.095 93.246c-.355.815-.815 1.523-1.418 2.126l-70.719 70.719 18.813 18.849 70.685-70.684a33.305 33.305 0 0 0 0-47.052l-28.274-28.273a33.305 33.305 0 0 0-47.052 0l-14.101 14.03 18.849 18.85 14.066-14.067a6.658 6.658 0 0 1 9.424 0l28.239 28.239a6.666 6.666 0 0 1 1.452 7.263h.036ZM95.078 198.97l14.066-14.066 18.885 18.814-14.173 14.101a33.305 33.305 0 0 1-47.052 0l-28.273-28.274a33.303 33.303 0 0 1 0-47.052L109.25 71.81l18.779 18.85-70.614 70.648a6.66 6.66 0 0 0 0 9.425l28.238 28.238a6.66 6.66 0 0 0 9.425 0Z" fill="url(#c)"/><defs><linearGradient id="a" x1="76.63" y1="105.375" x2="170.521" y2="199.266" gradientUnits="userSpaceOnUse"><stop stop-color="#13ADC7"/><stop offset="1" stop-color="#945DD6"/></linearGradient><linearGradient id="b" x1="76.63" y1="105.375" x2="170.521" y2="199.266" gradientUnits="userSpaceOnUse"><stop stop-color="#13ADC7"/><stop offset="1" stop-color="#945DD6"/></linearGradient><linearGradient id="c" x1="165.183" y1="87.66" x2="69.545" y2="183.298" gradientUnits="userSpaceOnUse"><stop stop-color="#F46837"/><stop offset="1" stop-color="#945DD6"/></linearGradient></defs></svg>
